<mxfile host="65bd71144e">
    <diagram id="e6VmQYUMG9_Sn6Qvpg7x" name="Page-1">
        <mxGraphModel dx="1155" dy="664" grid="1" gridSize="10" guides="1" tooltips="1" connect="1" arrows="1" fold="1" page="1" pageScale="1" pageWidth="1600" pageHeight="1200" math="0" shadow="0">
            <root>
                <mxCell id="0"/>
                <mxCell id="1" parent="0"/>
                <mxCell id="2" value="Đặt hàng" style="rounded=0;whiteSpace=wrap;html=1;fontSize=16;fontStyle=1;movable=1;resizable=1;rotatable=1;deletable=1;editable=1;connectable=1;fillColor=#ffe6cc;strokeColor=#d79b00;" parent="1" vertex="1">
                    <mxGeometry x="600" y="440" width="160" height="40" as="geometry"/>
                </mxCell>
                <mxCell id="3" value="1. Tìm kiếm sản phẩm" style="rounded=0;whiteSpace=wrap;html=1;fontSize=16;fontStyle=1;movable=1;resizable=1;rotatable=1;deletable=1;editable=1;connectable=1;fillColor=#dae8fc;strokeColor=#6c8ebf;" parent="1" vertex="1">
                    <mxGeometry x="250" y="520" width="140" height="40" as="geometry"/>
                </mxCell>
                <mxCell id="4" value="2. Thêm vào giỏ hàng" style="rounded=0;whiteSpace=wrap;html=1;fontSize=16;fontStyle=1;movable=1;resizable=1;rotatable=1;deletable=1;editable=1;connectable=1;fillColor=#dae8fc;strokeColor=#6c8ebf;" parent="1" vertex="1">
                    <mxGeometry x="490" y="520" width="140" height="40" as="geometry"/>
                </mxCell>
                <mxCell id="5" value="3. Đặt hàng" style="rounded=0;whiteSpace=wrap;html=1;fontSize=16;fontStyle=1;movable=1;resizable=1;rotatable=1;deletable=1;editable=1;connectable=1;fillColor=#dae8fc;strokeColor=#6c8ebf;" parent="1" vertex="1">
                    <mxGeometry x="730" y="520" width="140" height="40" as="geometry"/>
                </mxCell>
                <mxCell id="10" value="" style="edgeStyle=elbowEdgeStyle;elbow=vertical;endArrow=classic;html=1;curved=0;rounded=0;endSize=8;startSize=8;fontSize=16;exitX=0.5;exitY=1;exitDx=0;exitDy=0;entryX=0.5;entryY=0;entryDx=0;entryDy=0;movable=1;resizable=1;rotatable=1;deletable=1;editable=1;connectable=1;" parent="1" source="2" target="3" edge="1">
                    <mxGeometry width="50" height="50" relative="1" as="geometry">
                        <mxPoint x="680" y="820" as="sourcePoint"/>
                        <mxPoint x="730" y="770" as="targetPoint"/>
                    </mxGeometry>
                </mxCell>
                <mxCell id="11" value="" style="edgeStyle=elbowEdgeStyle;elbow=vertical;endArrow=classic;html=1;curved=0;rounded=0;endSize=8;startSize=8;fontSize=16;exitX=0.5;exitY=1;exitDx=0;exitDy=0;entryX=0.5;entryY=0;entryDx=0;entryDy=0;movable=1;resizable=1;rotatable=1;deletable=1;editable=1;connectable=1;" parent="1" source="2" target="4" edge="1">
                    <mxGeometry width="50" height="50" relative="1" as="geometry">
                        <mxPoint x="680" y="820" as="sourcePoint"/>
                        <mxPoint x="730" y="770" as="targetPoint"/>
                    </mxGeometry>
                </mxCell>
                <mxCell id="12" value="" style="edgeStyle=elbowEdgeStyle;elbow=vertical;endArrow=classic;html=1;curved=0;rounded=0;endSize=8;startSize=8;fontSize=16;exitX=0.5;exitY=1;exitDx=0;exitDy=0;entryX=0.5;entryY=0;entryDx=0;entryDy=0;movable=1;resizable=1;rotatable=1;deletable=1;editable=1;connectable=1;" parent="1" source="2" target="5" edge="1">
                    <mxGeometry width="50" height="50" relative="1" as="geometry">
                        <mxPoint x="690" y="490" as="sourcePoint"/>
                        <mxPoint x="570" y="530" as="targetPoint"/>
                    </mxGeometry>
                </mxCell>
                <mxCell id="14" value="1.1. Nhập tên sản phẩm" style="rounded=0;whiteSpace=wrap;html=1;fontSize=16;align=left;spacingLeft=5;movable=1;resizable=1;rotatable=1;deletable=1;editable=1;connectable=1;" parent="1" vertex="1">
                    <mxGeometry x="270" y="580" width="190" height="40" as="geometry"/>
                </mxCell>
                <mxCell id="15" value="1.2. Chọn tiêu chí" style="rounded=0;whiteSpace=wrap;html=1;fontSize=16;align=left;spacingLeft=5;movable=1;resizable=1;rotatable=1;deletable=1;editable=1;connectable=1;" parent="1" vertex="1">
                    <mxGeometry x="270" y="640" width="190" height="40" as="geometry"/>
                </mxCell>
                <mxCell id="16" value="1.3. Hiển thị kết quả" style="rounded=0;whiteSpace=wrap;html=1;fontSize=16;align=left;spacingLeft=5;movable=1;resizable=1;rotatable=1;deletable=1;editable=1;connectable=1;" parent="1" vertex="1">
                    <mxGeometry x="270" y="700" width="190" height="40" as="geometry"/>
                </mxCell>
                <mxCell id="17" value="2.1. Chọn sản phẩm" style="rounded=0;whiteSpace=wrap;html=1;fontSize=16;align=left;spacingLeft=5;movable=1;resizable=1;rotatable=1;deletable=1;editable=1;connectable=1;" parent="1" vertex="1">
                    <mxGeometry x="510" y="580" width="190" height="40" as="geometry"/>
                </mxCell>
                <mxCell id="20" value="" style="edgeStyle=elbowEdgeStyle;elbow=horizontal;endArrow=none;html=1;curved=0;rounded=0;endSize=8;startSize=8;fontSize=16;exitX=0;exitY=0.5;exitDx=0;exitDy=0;entryX=0;entryY=0.5;entryDx=0;entryDy=0;endFill=0;movable=1;resizable=1;rotatable=1;deletable=1;editable=1;connectable=1;" parent="1" source="3" target="14" edge="1">
                    <mxGeometry width="50" height="50" relative="1" as="geometry">
                        <mxPoint x="270" y="540" as="sourcePoint"/>
                        <mxPoint x="740" y="750" as="targetPoint"/>
                        <Array as="points">
                            <mxPoint x="250" y="580"/>
                        </Array>
                    </mxGeometry>
                </mxCell>
                <mxCell id="21" value="" style="edgeStyle=elbowEdgeStyle;elbow=horizontal;endArrow=none;html=1;curved=0;rounded=0;endSize=8;startSize=8;fontSize=16;entryX=0;entryY=0.5;entryDx=0;entryDy=0;endFill=0;exitX=0;exitY=0.5;exitDx=0;exitDy=0;movable=1;resizable=1;rotatable=1;deletable=1;editable=1;connectable=1;" parent="1" source="14" target="15" edge="1">
                    <mxGeometry width="50" height="50" relative="1" as="geometry">
                        <mxPoint x="250" y="610" as="sourcePoint"/>
                        <mxPoint x="270" y="710" as="targetPoint"/>
                        <Array as="points">
                            <mxPoint x="250" y="680"/>
                        </Array>
                    </mxGeometry>
                </mxCell>
                <mxCell id="22" value="" style="edgeStyle=elbowEdgeStyle;elbow=horizontal;endArrow=none;html=1;curved=0;rounded=0;endSize=8;startSize=8;fontSize=16;entryX=0;entryY=0.5;entryDx=0;entryDy=0;endFill=0;exitX=0;exitY=0.5;exitDx=0;exitDy=0;movable=1;resizable=1;rotatable=1;deletable=1;editable=1;connectable=1;" parent="1" source="15" target="16" edge="1">
                    <mxGeometry width="50" height="50" relative="1" as="geometry">
                        <mxPoint x="270" y="700" as="sourcePoint"/>
                        <mxPoint x="270" y="770" as="targetPoint"/>
                        <Array as="points">
                            <mxPoint x="250" y="770"/>
                        </Array>
                    </mxGeometry>
                </mxCell>
                <mxCell id="23" value="2.2. Chọn số lượng, kiểu mẫu" style="rounded=0;whiteSpace=wrap;html=1;fontSize=16;align=left;spacingLeft=5;movable=1;resizable=1;rotatable=1;deletable=1;editable=1;connectable=1;" parent="1" vertex="1">
                    <mxGeometry x="510" y="640" width="190" height="40" as="geometry"/>
                </mxCell>
                <mxCell id="24" value="2.3. Thêm vào giỏ hàng" style="rounded=0;whiteSpace=wrap;html=1;fontSize=16;align=left;spacingLeft=5;movable=1;resizable=1;rotatable=1;deletable=1;editable=1;connectable=1;" parent="1" vertex="1">
                    <mxGeometry x="510" y="700" width="190" height="40" as="geometry"/>
                </mxCell>
                <mxCell id="25" value="" style="edgeStyle=elbowEdgeStyle;elbow=horizontal;endArrow=none;html=1;curved=0;rounded=0;endSize=8;startSize=8;fontSize=16;entryX=0;entryY=0.5;entryDx=0;entryDy=0;endFill=0;exitX=0;exitY=0.5;exitDx=0;exitDy=0;movable=1;resizable=1;rotatable=1;deletable=1;editable=1;connectable=1;" parent="1" source="17" target="23" edge="1">
                    <mxGeometry width="50" height="50" relative="1" as="geometry">
                        <mxPoint x="510" y="610" as="sourcePoint"/>
                        <mxPoint x="510" y="680" as="targetPoint"/>
                        <Array as="points">
                            <mxPoint x="490" y="680"/>
                        </Array>
                    </mxGeometry>
                </mxCell>
                <mxCell id="26" value="" style="edgeStyle=elbowEdgeStyle;elbow=horizontal;endArrow=none;html=1;curved=0;rounded=0;endSize=8;startSize=8;fontSize=16;entryX=0;entryY=0.5;entryDx=0;entryDy=0;endFill=0;movable=1;resizable=1;rotatable=1;deletable=1;editable=1;connectable=1;exitX=0;exitY=0.5;exitDx=0;exitDy=0;" parent="1" source="4" target="17" edge="1">
                    <mxGeometry width="50" height="50" relative="1" as="geometry">
                        <mxPoint x="490" y="550" as="sourcePoint"/>
                        <mxPoint x="510" y="660" as="targetPoint"/>
                        <Array as="points">
                            <mxPoint x="490" y="600"/>
                        </Array>
                    </mxGeometry>
                </mxCell>
                <mxCell id="27" value="" style="edgeStyle=elbowEdgeStyle;elbow=horizontal;endArrow=none;html=1;curved=0;rounded=0;endSize=8;startSize=8;fontSize=16;entryX=0;entryY=0.5;entryDx=0;entryDy=0;endFill=0;exitX=0;exitY=0.5;exitDx=0;exitDy=0;movable=1;resizable=1;rotatable=1;deletable=1;editable=1;connectable=1;" parent="1" source="23" target="24" edge="1">
                    <mxGeometry width="50" height="50" relative="1" as="geometry">
                        <mxPoint x="510" y="630" as="sourcePoint"/>
                        <mxPoint x="510" y="710" as="targetPoint"/>
                        <Array as="points">
                            <mxPoint x="490" y="710"/>
                        </Array>
                    </mxGeometry>
                </mxCell>
                <mxCell id="28" value="3.1. Truy cập giỏ hàng" style="rounded=0;whiteSpace=wrap;html=1;fontSize=16;align=left;spacingLeft=5;movable=1;resizable=1;rotatable=1;deletable=1;editable=1;connectable=1;" parent="1" vertex="1">
                    <mxGeometry x="750" y="580" width="190" height="40" as="geometry"/>
                </mxCell>
                <mxCell id="29" value="3.2. Chọn các sản phẩm muốn mua" style="rounded=0;whiteSpace=wrap;html=1;fontSize=16;align=left;spacingLeft=5;movable=1;resizable=1;rotatable=1;deletable=1;editable=1;connectable=1;" parent="1" vertex="1">
                    <mxGeometry x="750" y="640" width="190" height="40" as="geometry"/>
                </mxCell>
                <mxCell id="30" value="3.3. Điền thông tin địa điểm nhận hàng, ghi chú" style="rounded=0;whiteSpace=wrap;html=1;fontSize=16;align=left;spacingLeft=5;movable=1;resizable=1;rotatable=1;deletable=1;editable=1;connectable=1;" parent="1" vertex="1">
                    <mxGeometry x="750" y="700" width="190" height="40" as="geometry"/>
                </mxCell>
                <mxCell id="31" value="" style="edgeStyle=elbowEdgeStyle;elbow=horizontal;endArrow=none;html=1;curved=0;rounded=0;endSize=8;startSize=8;fontSize=16;entryX=0;entryY=0.5;entryDx=0;entryDy=0;endFill=0;movable=1;resizable=1;rotatable=1;deletable=1;editable=1;connectable=1;exitX=0;exitY=0.5;exitDx=0;exitDy=0;" parent="1" edge="1">
                    <mxGeometry width="50" height="50" relative="1" as="geometry">
                        <mxPoint x="730" y="540" as="sourcePoint"/>
                        <mxPoint x="750" y="600" as="targetPoint"/>
                        <Array as="points">
                            <mxPoint x="730" y="600"/>
                        </Array>
                    </mxGeometry>
                </mxCell>
                <mxCell id="32" value="" style="edgeStyle=elbowEdgeStyle;elbow=horizontal;endArrow=none;html=1;curved=0;rounded=0;endSize=8;startSize=8;fontSize=16;entryX=0;entryY=0.5;entryDx=0;entryDy=0;endFill=0;exitX=0;exitY=0.5;exitDx=0;exitDy=0;movable=1;resizable=1;rotatable=1;deletable=1;editable=1;connectable=1;" parent="1" target="29" edge="1">
                    <mxGeometry width="50" height="50" relative="1" as="geometry">
                        <mxPoint x="750" y="600" as="sourcePoint"/>
                        <mxPoint x="750" y="680" as="targetPoint"/>
                        <Array as="points">
                            <mxPoint x="730" y="680"/>
                        </Array>
                    </mxGeometry>
                </mxCell>
                <mxCell id="33" value="" style="edgeStyle=elbowEdgeStyle;elbow=horizontal;endArrow=none;html=1;curved=0;rounded=0;endSize=8;startSize=8;fontSize=16;entryX=0;entryY=0.5;entryDx=0;entryDy=0;endFill=0;exitX=0;exitY=0.5;exitDx=0;exitDy=0;movable=1;resizable=1;rotatable=1;deletable=1;editable=1;connectable=1;" parent="1" source="29" target="30" edge="1">
                    <mxGeometry width="50" height="50" relative="1" as="geometry">
                        <mxPoint x="750" y="680" as="sourcePoint"/>
                        <mxPoint x="750" y="740" as="targetPoint"/>
                        <Array as="points">
                            <mxPoint x="730" y="710"/>
                        </Array>
                    </mxGeometry>
                </mxCell>
                <mxCell id="41" value="3.4. Chọn bộ phận giao hàng" style="rounded=0;whiteSpace=wrap;html=1;fontSize=16;align=left;spacingLeft=5;movable=1;resizable=1;rotatable=1;deletable=1;editable=1;connectable=1;" parent="1" vertex="1">
                    <mxGeometry x="750" y="760" width="190" height="40" as="geometry"/>
                </mxCell>
                <mxCell id="42" value="3.5. Chọn voucher" style="rounded=0;whiteSpace=wrap;html=1;fontSize=16;align=left;spacingLeft=5;movable=1;resizable=1;rotatable=1;deletable=1;editable=1;connectable=1;" parent="1" vertex="1">
                    <mxGeometry x="750" y="820" width="190" height="40" as="geometry"/>
                </mxCell>
                <mxCell id="43" value="3.6. Chọn hình thức thanh toán" style="rounded=0;whiteSpace=wrap;html=1;fontSize=16;align=left;spacingLeft=5;movable=1;resizable=1;rotatable=1;deletable=1;editable=1;connectable=1;" parent="1" vertex="1">
                    <mxGeometry x="750" y="880" width="190" height="40" as="geometry"/>
                </mxCell>
                <mxCell id="44" value="3.7. Tạo đơn hàng" style="rounded=0;whiteSpace=wrap;html=1;fontSize=16;align=left;spacingLeft=5;movable=1;resizable=1;rotatable=1;deletable=1;editable=1;connectable=1;" parent="1" vertex="1">
                    <mxGeometry x="750" y="940" width="190" height="40" as="geometry"/>
                </mxCell>
                <mxCell id="45" value="" style="edgeStyle=elbowEdgeStyle;elbow=horizontal;endArrow=none;html=1;curved=0;rounded=0;endSize=8;startSize=8;fontSize=16;entryX=0;entryY=0.5;entryDx=0;entryDy=0;endFill=0;exitX=0;exitY=0.5;exitDx=0;exitDy=0;movable=1;resizable=1;rotatable=1;deletable=1;editable=1;connectable=1;" parent="1" source="30" target="41" edge="1">
                    <mxGeometry width="50" height="50" relative="1" as="geometry">
                        <mxPoint x="750" y="730" as="sourcePoint"/>
                        <mxPoint x="750" y="790" as="targetPoint"/>
                        <Array as="points">
                            <mxPoint x="730" y="780"/>
                        </Array>
                    </mxGeometry>
                </mxCell>
                <mxCell id="46" value="" style="edgeStyle=elbowEdgeStyle;elbow=horizontal;endArrow=none;html=1;curved=0;rounded=0;endSize=8;startSize=8;fontSize=16;entryX=0;entryY=0.5;entryDx=0;entryDy=0;endFill=0;exitX=0;exitY=0.5;exitDx=0;exitDy=0;movable=1;resizable=1;rotatable=1;deletable=1;editable=1;connectable=1;" parent="1" source="41" target="42" edge="1">
                    <mxGeometry width="50" height="50" relative="1" as="geometry">
                        <mxPoint x="740" y="810" as="sourcePoint"/>
                        <mxPoint x="740" y="870" as="targetPoint"/>
                        <Array as="points">
                            <mxPoint x="730" y="810"/>
                        </Array>
                    </mxGeometry>
                </mxCell>
                <mxCell id="47" value="" style="edgeStyle=elbowEdgeStyle;elbow=horizontal;endArrow=none;html=1;curved=0;rounded=0;endSize=8;startSize=8;fontSize=16;entryX=0;entryY=0.5;entryDx=0;entryDy=0;endFill=0;exitX=0;exitY=0.5;exitDx=0;exitDy=0;movable=1;resizable=1;rotatable=1;deletable=1;editable=1;connectable=1;" parent="1" edge="1">
                    <mxGeometry width="50" height="50" relative="1" as="geometry">
                        <mxPoint x="750" y="840" as="sourcePoint"/>
                        <mxPoint x="750" y="900" as="targetPoint"/>
                        <Array as="points">
                            <mxPoint x="730" y="870"/>
                        </Array>
                    </mxGeometry>
                </mxCell>
                <mxCell id="48" value="" style="edgeStyle=elbowEdgeStyle;elbow=horizontal;endArrow=none;html=1;curved=0;rounded=0;endSize=8;startSize=8;fontSize=16;entryX=0;entryY=0.5;entryDx=0;entryDy=0;endFill=0;exitX=0;exitY=0.5;exitDx=0;exitDy=0;movable=1;resizable=1;rotatable=1;deletable=1;editable=1;connectable=1;" parent="1" edge="1">
                    <mxGeometry width="50" height="50" relative="1" as="geometry">
                        <mxPoint x="750" y="900" as="sourcePoint"/>
                        <mxPoint x="750" y="960" as="targetPoint"/>
                        <Array as="points">
                            <mxPoint x="730" y="930"/>
                        </Array>
                    </mxGeometry>
                </mxCell>
                <mxCell id="49" value="4. Hủy đơn hàng" style="rounded=0;whiteSpace=wrap;html=1;fontSize=16;fontStyle=1;movable=1;resizable=1;rotatable=1;deletable=1;editable=1;connectable=1;fillColor=#dae8fc;strokeColor=#6c8ebf;" parent="1" vertex="1">
                    <mxGeometry x="970" y="520" width="140" height="40" as="geometry"/>
                </mxCell>
                <mxCell id="50" value="" style="edgeStyle=elbowEdgeStyle;elbow=vertical;endArrow=classic;html=1;curved=0;rounded=0;endSize=8;startSize=8;fontSize=16;exitX=0.5;exitY=1;exitDx=0;exitDy=0;entryX=0.5;entryY=0;entryDx=0;entryDy=0;movable=1;resizable=1;rotatable=1;deletable=1;editable=1;connectable=1;" parent="1" source="2" target="49" edge="1">
                    <mxGeometry width="50" height="50" relative="1" as="geometry">
                        <mxPoint x="690" y="490" as="sourcePoint"/>
                        <mxPoint x="330" y="530" as="targetPoint"/>
                    </mxGeometry>
                </mxCell>
                <mxCell id="51" value="4.1. Chọn đơn hàng" style="rounded=0;whiteSpace=wrap;html=1;fontSize=16;align=left;spacingLeft=5;movable=1;resizable=1;rotatable=1;deletable=1;editable=1;connectable=1;" vertex="1" parent="1">
                    <mxGeometry x="990" y="580" width="190" height="40" as="geometry"/>
                </mxCell>
                <mxCell id="52" value="4.2. Nhập lý do hủy đơn hàng" style="rounded=0;whiteSpace=wrap;html=1;fontSize=16;align=left;spacingLeft=5;movable=1;resizable=1;rotatable=1;deletable=1;editable=1;connectable=1;" vertex="1" parent="1">
                    <mxGeometry x="990" y="640" width="190" height="40" as="geometry"/>
                </mxCell>
                <mxCell id="53" value="4.3. Hủy đơn hàng" style="rounded=0;whiteSpace=wrap;html=1;fontSize=16;align=left;spacingLeft=5;movable=1;resizable=1;rotatable=1;deletable=1;editable=1;connectable=1;" vertex="1" parent="1">
                    <mxGeometry x="990" y="700" width="190" height="40" as="geometry"/>
                </mxCell>
                <mxCell id="55" value="" style="edgeStyle=elbowEdgeStyle;elbow=horizontal;endArrow=none;html=1;curved=0;rounded=0;endSize=8;startSize=8;fontSize=16;entryX=0;entryY=0.5;entryDx=0;entryDy=0;endFill=0;exitX=0;exitY=0.5;exitDx=0;exitDy=0;movable=1;resizable=1;rotatable=1;deletable=1;editable=1;connectable=1;" edge="1" parent="1">
                    <mxGeometry width="50" height="50" relative="1" as="geometry">
                        <mxPoint x="990" y="600" as="sourcePoint"/>
                        <mxPoint x="990" y="660" as="targetPoint"/>
                        <Array as="points">
                            <mxPoint x="970" y="680"/>
                        </Array>
                    </mxGeometry>
                </mxCell>
                <mxCell id="56" value="" style="edgeStyle=elbowEdgeStyle;elbow=horizontal;endArrow=none;html=1;curved=0;rounded=0;endSize=8;startSize=8;fontSize=16;entryX=0;entryY=0.5;entryDx=0;entryDy=0;endFill=0;exitX=0;exitY=0.5;exitDx=0;exitDy=0;movable=1;resizable=1;rotatable=1;deletable=1;editable=1;connectable=1;" edge="1" parent="1">
                    <mxGeometry width="50" height="50" relative="1" as="geometry">
                        <mxPoint x="990" y="660" as="sourcePoint"/>
                        <mxPoint x="990" y="720" as="targetPoint"/>
                        <Array as="points">
                            <mxPoint x="970" y="740"/>
                        </Array>
                    </mxGeometry>
                </mxCell>
                <mxCell id="57" value="" style="edgeStyle=elbowEdgeStyle;elbow=horizontal;endArrow=none;html=1;curved=0;rounded=0;endSize=8;startSize=8;fontSize=16;entryX=0;entryY=0.5;entryDx=0;entryDy=0;endFill=0;movable=1;resizable=1;rotatable=1;deletable=1;editable=1;connectable=1;exitX=0;exitY=0.5;exitDx=0;exitDy=0;" edge="1" parent="1" source="49" target="51">
                    <mxGeometry width="50" height="50" relative="1" as="geometry">
                        <mxPoint x="960" y="540" as="sourcePoint"/>
                        <mxPoint x="980" y="600" as="targetPoint"/>
                        <Array as="points">
                            <mxPoint x="970" y="570"/>
                            <mxPoint x="960" y="620"/>
                        </Array>
                    </mxGeometry>
                </mxCell>
            </root>
        </mxGraphModel>
    </diagram>
</mxfile>